<?xml version="1.0" encoding="UTF-8"?>
<svg version="1.1" xmlns="http://www.w3.org/2000/svg" width="285" height="64">
<path d="M0 0 C3.96 0 7.92 0 12 0 C12.33 0.99 12.66 1.98 13 3 C13.66 3 14.32 3 15 3 C15.66 4.98 16.32 6.96 17 9 C17.66 9 18.32 9 19 9 C20.50631713 11.11788189 21.8915408 13.22716421 23.25 15.4375 C26.74163298 21.02776256 30.34034918 26.51052377 34 32 C34.33 21.44 34.66 10.88 35 0 C39.62 0 44.24 0 49 0 C49 19.14 49 38.28 49 58 C35 58 35 58 31.296875 54.45703125 C30.39522063 52.93893971 29.54632397 51.38839678 28.75 49.8125 C28.30527344 49.04357422 27.86054687 48.27464844 27.40234375 47.48242188 C25.29357909 43.77137833 23.45056921 40.02130021 22 36 C21.34 36 20.68 36 20 36 C19.34 34.02 18.68 32.04 18 30 C17.34 30 16.68 30 16 30 C15.34 29.01 14.68 28.02 14 27 C13.67 37.23 13.34 47.46 13 58 C8.71 58 4.42 58 0 58 C0 38.86 0 19.72 0 0 Z " fill="#E4E3DD" transform="translate(81,4)"/>
<path d="M0 0 C2.62527189 -0.05382106 5.24944713 -0.09358313 7.875 -0.125 C8.62136719 -0.14175781 9.36773437 -0.15851563 10.13671875 -0.17578125 C12.09194461 -0.1933959 14.04742021 -0.10320189 16 0 C18.77210043 2.77210043 19.46492215 6.03412121 20.609375 9.69140625 C20.8586676 10.46951157 21.10796021 11.24761688 21.36480713 12.04930115 C22.16566939 14.55189435 22.95830514 17.0569931 23.75 19.5625 C24.78296666 22.81492287 25.8199091 26.066055 26.859375 29.31640625 C27.11489136 30.11768951 27.37040771 30.91897278 27.63366699 31.74453735 C29.68559648 38.13385066 31.88695504 44.4634217 34.18450928 50.76844788 C36 55.79462497 36 55.79462497 36 58 C33.87527424 58.05386629 31.75016348 58.09273071 29.625 58.125 C27.84996094 58.15980469 27.84996094 58.15980469 26.0390625 58.1953125 C23 58 23 58 21 56 C19.82469219 52.71129466 18.94882906 49.3640303 18 46 C11.73 46 5.46 46 -1 46 C-2.32 49.96 -3.64 53.92 -5 58 C-9.62 58 -14.24 58 -19 58 C-16.91846404 49.22685965 -14.38624663 40.72717031 -11.5 32.1875 C-11.10941406 31.01251953 -10.71882812 29.83753906 -10.31640625 28.62695312 C-8.41788284 22.96654075 -6.39849758 17.46403294 -4 12 C-3.42546211 10.23955696 -2.87934178 8.4693229 -2.375 6.6875 C-1.09252669 2.18505338 -1.09252669 2.18505338 0 0 Z M8 17 C7.15838146 19.08000011 6.32699237 21.16414146 5.5 23.25 C5.0359375 24.41015625 4.571875 25.5703125 4.09375 26.765625 C2.78643767 30.06248366 2.78643767 30.06248366 3 34 C6.63 34 10.26 34 14 34 C13.54619105 32.10307857 13.08675008 30.20750405 12.625 28.3125 C12.36976563 27.25675781 12.11453125 26.20101563 11.8515625 25.11328125 C11.08094511 22.29593234 10.14501457 19.68331675 9 17 C8.67 17 8.34 17 8 17 Z " fill="#EEECE6" transform="translate(248,4)"/>
<path d="M0 0 C12.54 0 25.08 0 38 0 C38 3.96 38 7.92 38 12 C29.75 12 21.5 12 13 12 C13 15.63 13 19.26 13 23 C20.26 23 27.52 23 35 23 C35 26.63 35 30.26 35 34 C34 35 34 35 31.95874023 35.11352539 C30.64691772 35.10567017 30.64691772 35.10567017 29.30859375 35.09765625 C28.36435547 35.09443359 27.42011719 35.09121094 26.44726562 35.08789062 C25.45404297 35.07951172 24.46082031 35.07113281 23.4375 35.0625 C22.44041016 35.05798828 21.44332031 35.05347656 20.41601562 35.04882812 C17.94398513 35.03700023 15.47198528 35.01906415 13 35 C13 38.63 13 42.26 13 46 C20.92 46 28.84 46 37 46 C38 48 38 48 38 58 C25.46 58 12.92 58 0 58 C0 38.86 0 19.72 0 0 Z " fill="#EAE8E2" transform="translate(138,4)"/>
<path d="M0 0 C3.54067733 2.43019217 6.54632629 5.47298954 8.71875 9.1796875 C8.90625 11.9375 8.90625 11.9375 8.71875 14.1796875 C2.21875 18.1796875 2.21875 18.1796875 -2.28125 18.1796875 C-3.66248963 16.21246742 -4.99613126 14.21100422 -6.28125 12.1796875 C-10.89383965 10.64215762 -15.60176599 10.31264199 -20.28515625 11.828125 C-23.99969864 13.70545312 -26.72176208 16.12321165 -28.62109375 19.921875 C-30.20771261 25.34829926 -30.54496769 31.91867942 -28.48046875 37.24609375 C-27.38555378 39.02828204 -27.38555378 39.02828204 -25.28125 41.1796875 C-24.78625 41.7778125 -24.29125 42.3759375 -23.78125 42.9921875 C-19.97721802 46.00371282 -14.91843039 45.54066561 -10.28125 45.1796875 C-6.24110329 44.07782931 -4.0662454 42.27412684 -1.28125 39.1796875 C2.20545834 40.2890947 5.49359237 41.44306416 8.71875 43.1796875 C8.71875 44.8296875 8.71875 46.4796875 8.71875 48.1796875 C8.05875 48.1796875 7.39875 48.1796875 6.71875 48.1796875 C6.491875 48.7571875 6.265 49.3346875 6.03125 49.9296875 C3.16522947 54.84286555 -0.9752146 56.71246436 -6.28125 58.1796875 C-15.30282476 59.05045678 -24.32940788 58.92534688 -32.28125 54.1796875 C-39.47970905 48.08315563 -42.80399035 41.49064237 -44.09375 32.3046875 C-44.89299247 21.70249146 -41.4650241 13.47206316 -34.68359375 5.5 C-33.28125 4.1796875 -33.28125 4.1796875 -31.28125 4.1796875 C-31.28125 3.5196875 -31.28125 2.8596875 -31.28125 2.1796875 C-22.07448066 -2.67282152 -9.77059178 -4.49961464 0 0 Z " fill="#653AC6" transform="translate(44.28125,4.8203125)"/>
<path d="M0 0 C13.86 0 27.72 0 42 0 C42 11 42 11 40 14 C39.34 14 38.68 14 38 14 C37.7628125 14.68449219 37.525625 15.36898438 37.28125 16.07421875 C35.73491106 19.60534028 33.69619934 22.66554983 31.5 25.8125 C31.09652344 26.40998047 30.69304687 27.00746094 30.27734375 27.62304688 C29.23960218 29.12143611 28.12524203 30.56615614 27 32 C26.34 32 25.68 32 25 32 C24.7525 32.70125 24.505 33.4025 24.25 34.125 C22.82819762 37.39514548 21.12753712 40.141122 19 43 C18.34 43 17.68 43 17 43 C17 43.66 17 44.32 17 45 C25.25 45.33 33.5 45.66 42 46 C42 49.96 42 53.92 42 58 C27.81 58 13.62 58 -1 58 C-1 46.76923077 -1 46.76923077 2.5 42.125 C3.22445312 41.13242187 3.94890625 40.13984375 4.6953125 39.1171875 C5.45585937 38.08851562 6.21640625 37.05984375 7 36 C8.48502817 33.76669189 9.92540149 31.50670097 11.375 29.25 C12.52591998 27.46171796 13.71825044 25.6969642 15 24 C15.66 24 16.32 24 17 24 C17.226875 23.319375 17.45375 22.63875 17.6875 21.9375 C18.81902498 19.40503934 19.96415717 17.53542902 21.58203125 15.31640625 C22.03425049 14.6932251 22.48646973 14.07004395 22.95239258 13.42797852 C23.29810303 12.95674561 23.64381348 12.4855127 24 12 C23.30849854 12.00523682 22.61699707 12.01047363 21.90454102 12.01586914 C18.79053648 12.036575 15.67654639 12.04963963 12.5625 12.0625 C11.47388672 12.07087891 10.38527344 12.07925781 9.26367188 12.08789062 C8.22919922 12.09111328 7.19472656 12.09433594 6.12890625 12.09765625 C4.69140015 12.10551147 4.69140015 12.10551147 3.22485352 12.11352539 C1 12 1 12 0 11 C0 7.37 0 3.74 0 0 Z " fill="#EEECE6" transform="translate(183,4)"/>
<path d="M0 0 C4.29 0 8.58 0 13 0 C13 19.14 13 38.28 13 58 C8.38 58 3.76 58 -1 58 C-4.49150468 54.18520785 -5.60556192 52.16940942 -6.5 47.25 C-5.90138659 44.55623965 -4.81993634 43.04742838 -3 41 C-3.99 40.67 -4.98 40.34 -6 40 C-4 37 -4 37 -1 36 C-0.67 24.12 -0.34 12.24 0 0 Z " fill="#E8E7E1" transform="translate(117,4)"/>
<path d="M0 0 C2.62527189 -0.05382106 5.24944713 -0.09358313 7.875 -0.125 C8.62136719 -0.14175781 9.36773437 -0.15851563 10.13671875 -0.17578125 C12.09194461 -0.1933959 14.04742021 -0.10320189 16 0 C18.56519496 2.56519496 19.06215899 4.79365562 20.1640625 8.25 C20.56367188 9.4978125 20.96328125 10.745625 21.375 12.03125 C21.57996094 12.68222656 21.78492188 13.33320313 21.99609375 14.00390625 C22.62325848 15.99447258 23.26004323 17.98176014 23.8984375 19.96875 C27 29.71651786 27 29.71651786 27 32 C26.01 32 25.02 32 24 32 C23.505 30.515 23.505 30.515 23 29 C22.34 28.67 21.68 28.34 21 28 C20.67 29.32 20.34 30.64 20 32 C19.34 32 18.68 32 18 32 C17.67 33.32 17.34 34.64 17 36 C16.505 35.505 16.505 35.505 16 35 C13.46950598 34.92686433 10.96695163 34.90752473 8.4375 34.9375 C7.72658203 34.94201172 7.01566406 34.94652344 6.28320312 34.95117188 C4.52209987 34.96299136 2.76103964 34.98092737 1 35 C0.505 33.515 0.505 33.515 0 32 C-0.66 31.67 -1.32 31.34 -2 31 C-2.495 32.485 -2.495 32.485 -3 34 C-3.66 33.01 -4.32 32.02 -5 31 C-4.67 30.34 -4.34 29.68 -4 29 C-5.32 29.33 -6.64 29.66 -8 30 C-7.67 30.66 -7.34 31.32 -7 32 C-8.32 32.66 -9.64 33.32 -11 34 C-10.05506468 29.09745322 -8.96179377 24.64073171 -6.85546875 20.0859375 C-5.25740381 16.18928599 -4.15814645 12.12112174 -2.96484375 8.0859375 C-2.10052605 5.32152055 -1.11689331 2.67061601 0 0 Z M8 17 C7.15838146 19.08000011 6.32699237 21.16414146 5.5 23.25 C5.0359375 24.41015625 4.571875 25.5703125 4.09375 26.765625 C2.78643767 30.06248366 2.78643767 30.06248366 3 34 C6.63 34 10.26 34 14 34 C13.54619105 32.10307857 13.08675008 30.20750405 12.625 28.3125 C12.36976563 27.25675781 12.11453125 26.20101563 11.8515625 25.11328125 C11.08094511 22.29593234 10.14501457 19.68331675 9 17 C8.67 17 8.34 17 8 17 Z " fill="#E8E6E0" transform="translate(248,4)"/>
<path d="M0 0 C4.29 0 8.58 0 13 0 C13 19.14 13 38.28 13 58 C8.71 58 4.42 58 0 58 C0 38.86 0 19.72 0 0 Z " fill="#E0DFD9" transform="translate(60,4)"/>
<path d="M0 0 C13.86 0 27.72 0 42 0 C42 11 42 11 40 14 C37.375 14.1875 37.375 14.1875 35 14 C34.67 14.99 34.34 15.98 34 17 C31.9375 17.6875 31.9375 17.6875 30 18 C29.5359375 16.576875 29.5359375 16.576875 29.0625 15.125 C28.12605258 12.13919592 28.12605258 12.13919592 27 10 C25.54119891 10.14107747 24.08296449 10.28802415 22.625 10.4375 C21.81289062 10.51871094 21.00078125 10.59992187 20.1640625 10.68359375 C17.95727195 10.89090114 17.95727195 10.89090114 16 12 C13.4676428 12.09773002 10.96914408 12.13910387 8.4375 12.125 C7.73947266 12.12886719 7.04144531 12.13273437 6.32226562 12.13671875 C1.12663994 12.12663994 1.12663994 12.12663994 0 11 C0 7.37 0 3.74 0 0 Z " fill="#ECEAE4" transform="translate(183,4)"/>
<path d="M0 0 C0.33 0 0.66 0 1 0 C1 12.54 1 25.08 1 38 C-1.475 38.495 -1.475 38.495 -4 39 C-2.515 39.495 -2.515 39.495 -1 40 C-1 40.99 -1 41.98 -1 43 C-1.99 43.66 -2.98 44.32 -4 45 C-5.19232613 47.05003955 -5.19232613 47.05003955 -6 49 C-7.17213045 47.21190303 -8.33755526 45.41940875 -9.5 43.625 C-10.1496875 42.62726562 -10.799375 41.62953125 -11.46875 40.6015625 C-13 38 -13 38 -13 36 C-13.66 36 -14.32 36 -15 36 C-15.66 34.02 -16.32 32.04 -17 30 C-17.66 30 -18.32 30 -19 30 C-19.33 29.01 -19.66 28.02 -20 27 C-19.01 27.33 -18.02 27.66 -17 28 C-13.7089159 24.39042389 -12.45336079 21.87362847 -12 17 C-7.61568452 21.38431548 -4.43934003 26.84098996 -1 32 C-0.67 21.44 -0.34 10.88 0 0 Z " fill="#CAC9C3" transform="translate(116,4)"/>
<path d="M0 0 C1.45823212 -0.0270043 2.91660675 -0.04639787 4.375 -0.0625 C5.18710938 -0.07410156 5.99921875 -0.08570313 6.8359375 -0.09765625 C9 0 9 0 11 1 C11.40729228 3.32156597 11.74438677 5.6568787 12 8 C14.0245738 6.06745228 15.42105792 4.36841312 17 2 C17 2.66 17 3.32 17 4 C17.99 4 18.98 4 20 4 C18.4785114 8.39081764 16.14060361 12.02875969 13.5 15.8125 C12.89478516 16.7087207 12.89478516 16.7087207 12.27734375 17.62304688 C11.23960218 19.12143611 10.12524203 20.56615614 9 22 C8.34 22 7.68 22 7 22 C6.67 22.99 6.34 23.98 6 25 C4.7619986 21.42355152 5.25073929 18.66305234 6 15 C3.08517222 14.19032562 1.53886783 13.78154007 -1.3125 14.9375 C-1.869375 15.288125 -2.42625 15.63875 -3 16 C-3 15.34 -3 14.68 -3 14 C-2.34 14 -1.68 14 -1 14 C-0.773125 13.319375 -0.54625 12.63875 -0.3125 11.9375 C1.35572357 8.20385676 3.55729608 5.27836579 6 2 C3.03 1.505 3.03 1.505 0 1 C0 0.67 0 0.34 0 0 Z " fill="#E6E4DF" transform="translate(201,14)"/>
<path d="M0 0 C0.99 0.33 1.98 0.66 3 1 C3 1.66 3 2.32 3 3 C4.32 2.67 5.64 2.34 7 2 C6.68950274 3.43793392 6.3765224 4.8753318 6.0625 6.3125 C5.88847656 7.11300781 5.71445313 7.91351563 5.53515625 8.73828125 C5 11 5 11 4 14 C-0.62 14 -5.24 14 -10 14 C-8.95772483 8.61491161 -8.95772483 8.61491161 -8 6 C-6.125 4.75 -6.125 4.75 -4 4 C-2.62913085 2.70529025 -1.28659163 1.37849103 0 0 Z " fill="#DAD8D3" transform="translate(239,48)"/>
<path d="M0 0 C3.48670834 1.1094072 6.77484237 2.26337666 10 4 C10 5.65 10 7.3 10 9 C9.34 9 8.68 9 8 9 C7.773125 9.5775 7.54625 10.155 7.3125 10.75 C4.45138399 15.65477029 0.30771485 17.55700424 -5 19 C-8.7265625 19.265625 -8.7265625 19.265625 -12.625 19.25 C-13.91664062 19.25515625 -15.20828125 19.2603125 -16.5390625 19.265625 C-20 19 -20 19 -24 17 C-14.1 16.505 -14.1 16.505 -4 16 C-4 15.67 -4 15.34 -4 15 C-2.35 15 -0.7 15 1 15 C1.33 13.35 1.66 11.7 2 10 C3.65 10 5.3 10 7 10 C7 8.35 7 6.7 7 5 C4.58354218 4.83312552 4.58354218 4.83312552 2 5 C1.34 5.66 0.68 6.32 0 7 C-3.2704774 8.24052591 -5.64961743 7.83759564 -9 7 C-8.1646875 6.6596875 -8.1646875 6.6596875 -7.3125 6.3125 C-4.36753316 4.64103234 -2.31843456 2.44723648 0 0 Z " fill="#4F3294" transform="translate(43,44)"/>
<path d="M0 0 C0.99 2.31 1.98 4.62 3 7 C2.34 7 1.68 7 1 7 C1.33 7.66 1.66 8.32 2 9 C4.31 9 6.62 9 9 9 C8.1646875 9.5878125 8.1646875 9.5878125 7.3125 10.1875 C3.38376366 13.26677984 -0.08753778 16.30577454 -2 21 C-2.33 21 -2.66 21 -3 21 C-3.66 17.37 -4.32 13.74 -5 10 C-4.34 9.67 -3.68 9.34 -3 9 C-2.34786708 6.97536745 -2.34786708 6.97536745 -2 5 C-3.32 5 -4.64 5 -6 5 C-5.67 5.99 -5.34 6.98 -5 8 C-6.98 8.66 -8.96 9.32 -11 10 C-9.12050295 6.42895561 -7.82946843 4.45255699 -4 3 C-4 2.34 -4 1.68 -4 1 C-2 0 -2 0 0 0 Z " fill="#5D37B6" transform="translate(17,6)"/>
<path d="M0 0 C0.6875 1.5625 0.6875 1.5625 1 4 C0.07175817 6.3627974 -0.93097061 8.69747517 -2 11 C-2.33 12.32 -2.66 13.64 -3 15 C0.63 15 4.26 15 8 15 C7.34 12.03 6.68 9.06 6 6 C9.00617269 9.00617269 8.59585316 11.82381598 9 16 C4.38 16 -0.24 16 -5 16 C-6.33333333 13.33333333 -7.66666667 10.66666667 -9 8 C-8.67 7.34 -8.34 6.68 -8 6 C-7.34 6 -6.68 6 -6 6 C-6 5.34 -6 4.68 -6 4 C-3 2 -3 2 0 2 C0 1.34 0 0.68 0 0 Z " fill="#B8B6B2" transform="translate(254,23)"/>
<path d="M0 0 C0.99 0.33 1.98 0.66 3 1 C4.16159627 3.50189966 4.04490036 4.82039858 3.375 7.5 C1.72319998 10.50327276 -0.227521 12.03008071 -3 14 C-3 13.34 -3 12.68 -3 12 C-3.66 12 -4.32 12 -5 12 C-4.75 8.625 -4.75 8.625 -4 5 C-1.9375 3.5625 -1.9375 3.5625 0 3 C0 2.01 0 1.02 0 0 Z " fill="#F7F5EF" transform="translate(101,19)"/>
<path d="M0 0 C3.48670834 1.1094072 6.77484237 2.26337666 10 4 C9.67 5.32 9.34 6.64 9 8 C8.34 8 7.68 8 7 8 C7 7.01 7 6.02 7 5 C4.58354218 4.83312552 4.58354218 4.83312552 2 5 C1.34 5.66 0.68 6.32 0 7 C-3.2704774 8.24052591 -5.64961743 7.83759564 -9 7 C-8.443125 6.773125 -7.88625 6.54625 -7.3125 6.3125 C-4.36753316 4.64103234 -2.31843456 2.44723648 0 0 Z " fill="#5535A1" transform="translate(43,44)"/>
<path d="M0 0 C1.32 0 2.64 0 4 0 C3.67 1.65 3.34 3.3 3 5 C2.34 5 1.68 5 1 5 C1.66 6.98 2.32 8.96 3 11 C1.35 11 -0.3 11 -2 11 C-1.67 9.35 -1.34 7.7 -1 6 C-2.32 7.32 -3.64 8.64 -5 10 C-5.3125 7.6875 -5.3125 7.6875 -5 5 C-2.5 3.3125 -2.5 3.3125 0 2 C0 1.34 0 0.68 0 0 Z " fill="#6A3CD1" transform="translate(11,11)"/>
<path d="M0 0 C0 3.59058544 -0.89631503 4.74787471 -2.875 7.6875 C-3.40867188 8.49574219 -3.94234375 9.30398437 -4.4921875 10.13671875 C-4.98976562 10.75160156 -5.48734375 11.36648437 -6 12 C-6.66 12 -7.32 12 -8 12 C-8.33 12.99 -8.66 13.98 -9 15 C-10.10844919 11.67465243 -9.84454356 9.37817425 -9 6 C-7.68 5.67 -6.36 5.34 -5 5 C-5 4.01 -5 3.02 -5 2 C-3.35 1.34 -1.7 0.68 0 0 Z " fill="#BAB9B5" transform="translate(216,24)"/>
<path d="M0 0 C2.29013653 3.4352048 2.17842973 4.985331 2 9 C0.02 9.66 -1.96 10.32 -4 11 C-4.66 10.34 -5.32 9.68 -6 9 C-4.02 6.03 -2.04 3.06 0 0 Z " fill="#CDCBC7" transform="translate(197,30)"/>
<path d="M0 0 C0.66 0.33 1.32 0.66 2 1 C1.67 1.99 1.34 2.98 1 4 C1.99 4.66 2.98 5.32 4 6 C0.04 6 -3.92 6 -8 6 C-8.33 4.35 -8.66 2.7 -9 1 C-8.071875 1.20625 -7.14375 1.4125 -6.1875 1.625 C-2.84826598 2.36692966 -2.84826598 2.36692966 0 0 Z " fill="#F2F1ED" transform="translate(279,56)"/>
<path d="M0 0 C0.99 0.33 1.98 0.66 3 1 C3.6875 3.0625 3.6875 3.0625 4 5 C4.33 4.34 4.66 3.68 5 3 C5.99 3.33 6.98 3.66 8 4 C7.67 5.32 7.34 6.64 7 8 C5.35 8 3.7 8 2 8 C2 7.34 2 6.68 2 6 C0.68 6.33 -0.64 6.66 -2 7 C-2 3.89448334 -1.4606285 2.64738916 0 0 Z " fill="#FAF7F0" transform="translate(241,32)"/>
<path d="M0 0 C2 2 2 2 2 4 C1.01 4.66 0.02 5.32 -1 6 C-1.66 7.32 -2.32 8.64 -3 10 C-4.32 7.36 -5.64 4.72 -7 2 C-4.69 1.34 -2.38 0.68 0 0 Z " fill="#DBD9D4" transform="translate(113,43)"/>
<path d="M0 0 C0.33 0 0.66 0 1 0 C1 1.65 1 3.3 1 5 C0.34 5 -0.32 5 -1 5 C-0.67 5.99 -0.34 6.98 0 8 C-3.63 8 -7.26 8 -11 8 C-10.67 7.01 -10.34 6.02 -10 5 C-7.69 5 -5.38 5 -3 5 C-2.67 5.66 -2.34 6.32 -2 7 C-2 5.35 -2 3.7 -2 2 C-1.34 2 -0.68 2 0 2 C0 1.34 0 0.68 0 0 Z " fill="#FAF9F3" transform="translate(242,53)"/>
<path d="M0 0 C2.97 0 5.94 0 9 0 C9.33 0.99 9.66 1.98 10 3 C9.01 3.66 8.02 4.32 7 5 C5.93753473 6.96752828 4.92862192 8.96587579 4 11 C3.34 11 2.68 11 2 11 C2.53069061 7.17902761 3.49701566 4.93828597 6 2 C3.03 1.505 3.03 1.505 0 1 C0 0.67 0 0.34 0 0 Z " fill="#ABA9A5" transform="translate(201,14)"/>
<path d="M0 0 C1.65 0 3.3 0 5 0 C4.01 1.98 3.02 3.96 2 6 C1.34 6 0.68 6 0 6 C-0.33 6.66 -0.66 7.32 -1 8 C-1.93065133 5.39417629 -2.14917407 4.35801776 -1.0625 1.75 C-0.711875 1.1725 -0.36125 0.595 0 0 Z " fill="#BEBDB9" transform="translate(200,41)"/>
<path d="M0 0 C1.18851563 0.10183594 2.37703125 0.20367187 3.6015625 0.30859375 C4.51679688 0.39238281 5.43203125 0.47617188 6.375 0.5625 C6.375 0.8925 6.375 1.2225 6.375 1.5625 C1.425 2.2225 -3.525 2.8825 -8.625 3.5625 C-8.625 2.5725 -8.625 1.5825 -8.625 0.5625 C-5.68113377 -0.90943312 -3.25109964 -0.28686173 0 0 Z " fill="#6A41C7" transform="translate(26.625,12.4375)"/>
<path d="M0 0 C4.29 0.66 8.58 1.32 13 2 C13 2.66 13 3.32 13 4 C11.39620659 4.05416188 9.79188594 4.09286638 8.1875 4.125 C7.29417969 4.14820313 6.40085937 4.17140625 5.48046875 4.1953125 C3 4 3 4 0 2 C0 1.34 0 0.68 0 0 Z " fill="#513396" transform="translate(21,49)"/>
<path d="M0 0 C0.66 0 1.32 0 2 0 C1.979375 0.78375 1.95875 1.5675 1.9375 2.375 C1.81315937 4.98114961 1.81315937 4.98114961 3 7 C1.68 7.33 0.36 7.66 -1 8 C-1.625 5.6875 -1.625 5.6875 -2 3 C-1.34 2.01 -0.68 1.02 0 0 Z " fill="#FAF9F3" transform="translate(273,36)"/>
<path d="M0 0 C0.99 0 1.98 0 3 0 C3 0.66 3 1.32 3 2 C3.66 2 4.32 2 5 2 C5 1.34 5 0.68 5 0 C6.65 0 8.3 0 10 0 C8.02579865 2.52259061 7.03254358 2.9929808 3.8125 3.6875 C2.4203125 3.8421875 2.4203125 3.8421875 1 4 C0.67 2.68 0.34 1.36 0 0 Z " fill="#4C328B" transform="translate(41,19)"/>
<path d="M0 0 C2.45823172 3.68734758 3.01242616 6.69699971 4 11 C2.35 10.67 0.7 10.34 -1 10 C-0.34 8.02 0.32 6.04 1 4 C0.34 4 -0.32 4 -1 4 C-0.67 2.68 -0.34 1.36 0 0 Z " fill="#B1B0AD" transform="translate(280,51)"/>
<path d="M0 0 C0 0.99 0 1.98 0 3 C-5.94 2.01 -5.94 2.01 -12 1 C-12 0.67 -12 0.34 -12 0 C-7.6835078 -0.76173392 -4.25566547 -1.16063604 0 0 Z " fill="#493085" transform="translate(38,14)"/>
<path d="M0 0 C1.485 0.99 1.485 0.99 3 2 C3.1875 4.625 3.1875 4.625 3 7 C1.68 6.67 0.36 6.34 -1 6 C-0.67 4.02 -0.34 2.04 0 0 Z " fill="#5C3FAB" transform="translate(50,12)"/>
<path d="M0 0 C0.33 0 0.66 0 1 0 C1.16873478 1.43725871 1.33490737 2.87481838 1.5 4.3125 C1.5928125 5.11300781 1.685625 5.91351563 1.78125 6.73828125 C2 9 2 9 2 12 C1.01 11.34 0.02 10.68 -1 10 C-0.67 6.7 -0.34 3.4 0 0 Z " fill="#452B85" transform="translate(13,31)"/>
<path d="M0 0 C0.33 1.32 0.66 2.64 1 4 C-0.32 4.99 -1.64 5.98 -3 7 C-3.66 6.67 -4.32 6.34 -5 6 C-3.35 4.02 -1.7 2.04 0 0 Z " fill="#523497" transform="translate(11,9)"/>
</svg>
